<svg width="64" height="64" viewBox="0 0 64 64" fill="none" xmlns="http://www.w3.org/2000/svg">
<path d="M29.3334 16H24C22.8955 16 22 16.8954 22 18V28C22 29.1046 22.8955 30 24 30H29.3334C30.4379 30 31.3334 29.1046 31.3334 28V18C31.3334 16.8954 30.4379 16 29.3334 16Z" fill="#20A090"/>
<path fill-rule="evenodd" clip-rule="evenodd" d="M27.6667 10.6667H25.3333C24.597 10.6667 24 11.2636 24 12V14C24 14.7364 24.597 15.3333 25.3333 15.3333H27.6667C28.403 15.3333 29 14.7364 29 14V12C29 11.2636 28.403 10.6667 27.6667 10.6667ZM22 35.3333C22 34.597 22.597 34 23.3333 34H29.6667C30.403 34 31 34.597 31 35.3333V36.6667C31 37.403 30.403 38 29.6667 38H23.3333C22.597 38 22 37.403 22 36.6667V35.3333Z" fill="#20A090"/>
<path d="M12.6667 42H41.3334C42.0697 42 42.6667 42.597 42.6667 43.3333V44.6667C42.6667 45.403 42.0697 46 41.3334 46H12.6667C11.9303 46 11.3334 45.403 11.3334 44.6667V43.3333C11.3334 42.597 11.9303 42 12.6667 42Z" fill="#20A090"/>
<path d="M48.0001 46C48.0001 44.5272 47.7629 43.0839 47.3095 41.725C44.4751 32.5979 36.6332 26.6667 27.3334 26.6667C27.0545 26.6667 26.7781 26.6761 26.5042 26.6946C26.192 26.1733 25.7533 25.7533 25.232 25.4411C24.582 25.0645 23.8344 24.8667 23.0667 24.8667H22V30H23.0667C23.4735 30 23.8667 29.8954 24.2023 29.7024C24.8966 29.2995 25.3334 28.5321 25.3334 27.6667C25.3334 27.6074 25.3308 27.5484 25.3256 27.4897C30.2917 28.531 34.4079 31.0601 37.3334 34.6667C37.3334 34.6667 42.6667 46 48.0001 46Z" fill="#20A090"/>
<path d="M10 50.6667H44C44.7364 50.6667 45.3333 51.2636 45.3333 52V53.3333C45.3333 54.0697 44.7364 54.6667 44 54.6667H10C9.26364 54.6667 8.66669 54.0697 8.66669 53.3333V52C8.66669 51.2636 9.26364 50.6667 10 50.6667Z" fill="#20A090"/>
</svg>
