<svg width="64" height="64" viewBox="0 0 64 64" fill="none" xmlns="http://www.w3.org/2000/svg">
<g clip-path="url(#clip0_303_2)">
<path d="M29.5 16H34.5C35.0523 16 35.5 16.4477 35.5 17V19H28.5V17C28.5 16.4477 28.9477 16 29.5 16Z" fill="#20A496"/>
<path d="M28 20H36V32H28V20Z" fill="#20A496"/>
<path d="M35 25C35 25 42 27 42 34C42 34 35 32 35 25Z" fill="#20A496"/>
<path d="M20 34H44V38H20V34Z" fill="#20A496"/>
<path d="M18 40H46V44H18V40Z" fill="#20A496"/>
<path d="M16 46H48V50H16V46Z" fill="#20A496"/>
</g>
<defs>
<clipPath id="clip0_303_2">
<rect width="64" height="64" rx="8" fill="white"/>
</clipPath>
</defs>
</svg>
