<svg xmlns="http://www.w3.org/2000/svg" viewBox="0 0 24 24" fill="currentColor" class="w-6 h-6">
  <path d="M16.5 6.5C16.5 5.39543 17.3954 4.5 18.5 4.5C19.6046 4.5 20.5 5.39543 20.5 6.5V9.5C20.5 10.6046 19.6046 11.5 18.5 11.5H16.5V6.5Z" stroke="currentColor" stroke-width="1.5" stroke-linecap="round" stroke-linejoin="round"/>
  <path d="M12 14.5H20.5V17.5H12C10.8954 17.5 10 16.6046 10 15.5C10 14.8333 10.8954 14.5 12 14.5Z" stroke="currentColor" stroke-width="1.5" stroke-linecap="round" stroke-linejoin="round"/>
  <path d="M12 21.5H3.5V18.5H12C13.1046 18.5 14 19.3954 14 20.5C14 21.5 13.1046 21.5 12 21.5Z" stroke="currentColor" stroke-width="1.5" stroke-linecap="round" stroke-linejoin="round"/>
  <path d="M16.5 8.5C16.5 7.39543 15.6046 6.5 14.5 6.5H10.5C9.39543 6.5 8.5 7.39543 8.5 8.5V11.5H16.5V8.5Z" stroke="currentColor" stroke-width="1.5" stroke-linecap="round" stroke-linejoin="round"/>
  <path d="M12.5 11.5V13.5" stroke="currentColor" stroke-width="1.5" stroke-linecap="round" stroke-linejoin="round"/>
  <path d="M8.5 11.5C8.5 12.6046 7.60457 13.5 6.5 13.5C5.39543 13.5 4.5 12.6046 4.5 11.5V9.5C4.5 8.39543 5.39543 7.5 6.5 7.5C7.60457 7.5 8.5 8.39543 8.5 9.5V11.5Z" stroke="currentColor" stroke-width="1.5" stroke-linecap="round" stroke-linejoin="round"/>
</svg>
